<?xml version="1.0" standalone="no"?>
<!DOCTYPE svg PUBLIC "-//W3C//DTD SVG 20010904//EN"
 "http://www.w3.org/TR/2001/REC-SVG-20010904/DTD/svg10.dtd">
<svg version="1.0" xmlns="http://www.w3.org/2000/svg"
 width="400.000000pt" height="400.000000pt" viewBox="0 0 400.000000 400.000000"
 preserveAspectRatio="xMidYMid meet">
<metadata>
Created by potrace 1.11, written by Peter Selinger 2001-2013
</metadata>
<g transform="translate(0.000000,400.000000) scale(0.100000,-0.100000)"
fill="#000000" stroke="none">
<path d="M0 2000 l0 -2000 2000 0 2000 0 0 2000 0 2000 -2000 0 -2000 0 0
-2000z m550 534 l0 -537 60 66 c78 85 180 152 289 191 80 28 96 31 221 31 122
0 143 -3 224 -29 239 -79 417 -282 466 -534 l13 -62 185 2 185 3 14 70 c66
325 348 555 681 555 193 0 343 -61 483 -198 l89 -87 2 530 3 530 60 0 60 0 3
-710 c1 -421 -2 -751 -7 -810 -19 -189 -94 -342 -227 -463 -192 -177 -491
-230 -729 -129 -219 92 -391 309 -423 535 l-7 47 -187 3 -186 2 -7 -42 c-40
-264 -225 -480 -480 -565 -70 -24 -96 -27 -210 -27 -120 0 -137 2 -218 31
-118 41 -187 84 -271 169 -83 82 -136 167 -174 279 l-27 80 -3 803 -3 802 61
0 60 0 0 -536z"/>
<path d="M986 2154 c-149 -36 -301 -156 -369 -292 -148 -296 -36 -633 258
-778 491 -241 1007 279 763 768 -120 238 -392 365 -652 302z"/>
<path d="M2753 2156 c-116 -29 -242 -109 -312 -199 -86 -113 -126 -229 -125
-368 3 -376 373 -649 736 -543 184 54 343 220 393 410 18 68 20 191 4 266 -41
200 -218 380 -424 433 -71 18 -199 18 -272 1z"/>
</g>
</svg>
